<svg version="1" xmlns="http://www.w3.org/2000/svg" width="1277.333" height="1277.333" viewBox="0 0 958.000000 958.000000"><path d="M473.5 3.8c-2.7 1.5-7.5 4.1-10.5 5.9-3 1.7-8.7 4.9-12.5 7-3.9 2.1-16.4 9-27.8 15.3L402 43.5v3.7c0 4 .1 4.1 19 14.6 2.5 1.3 5 2.8 5.5 3.2.6.4 10.2 6 21.5 12.5 46.9 27 41.7 24 58.5 33.7 7.2 4.2 14.6 8.5 16.5 9.7 1.9 1.1 4.1 2.4 4.9 2.8.8.4 7.6 4.2 15 8.6 7.5 4.3 15.4 8.9 17.6 10.1 7.3 4.2 25.8 14.8 47 27.1 11.6 6.7 23 13.3 25.5 14.7 2.5 1.4 13.3 7.6 24 13.8 10.7 6.3 20.4 11.9 21.5 12.5 8 4.3 18.5 10.8 18.5 11.3 0 .6-35.1 21.1-55.9 32.7-2 1.1-5.6 3.2-8.1 4.7-2.5 1.4-14.8 8.5-27.5 15.8-12.6 7.3-25.9 14.9-29.5 17-9 5.3-77.5 44.7-81.4 46.8-1.7 1-4.9 2.9-7.1 4.3-9.5 5.9-2.7 8.7-65.1-27.2-30.7-17.7-57.6-33.3-59.6-34.5-2.1-1.3-4-2.4-4.3-2.4-.3 0-3.5-1.8-7.1-4-3.6-2.2-6.8-4-7.1-4-.3 0-1.7-.8-3.1-1.8-1.5-1-5.2-3.2-8.3-5-6.4-3.5-4.5-3.9-19.4 4.8-4.9 2.9-11 6.4-13.5 7.8-2.5 1.4-10.8 6.2-18.5 10.7-7.7 4.5-17.5 10.1-21.7 12.6l-7.8 4.4.3 174.3.2 174.4 20 11.4c11 6.4 22.5 13 25.5 14.8 3 1.8 7.5 4.5 10 5.8 6.6 3.7 48.7 28 61.3 35.4 6 3.5 11 6.4 11.3 6.4.2 0 2.8 1.6 5.8 3.5s5.7 3.5 6 3.5c.2 0 8.1 4.5 17.6 10 9.4 5.5 17.3 10 17.6 10 .2 0 1.7.9 3.2 1.9 8.1 5.7 46.9 27.1 48.4 26.8 1.5-.4 57.5-33.4 63.8-37.6 1.4-.9 4.2-2.5 6.3-3.6l3.7-2-.2-43.9-.3-44-4.6-1.4-4.5-1.4-10 5.7c-18.3 10.7-47.9 27.8-51.7 30l-3.8 2.2-20.2-12c-11.1-6.5-21.8-12.9-23.7-14.2-1.9-1.2-15.4-9.3-30-17.9-14.6-8.7-36.5-21.7-48.7-28.9L333 600.5V479.7c0-66.4.2-120.7.4-120.7s19.7 11.2 43.2 24.8c23.6 13.6 43.6 25.1 44.4 25.5.8.3 14.5 8.2 30.4 17.5l28.9 16.8 8.6-4.9c4.7-2.7 11.1-6.4 14.1-8.1 3-1.8 12-7.1 20-11.8 8-4.7 27.8-16.3 44-25.8s41-24 55-32.2c39.3-23.1 71.3-41.9 73-42.9.8-.5 8.5-4.9 17-9.9s16.2-9.4 17-9.9c.8-.5 11.9-7 24.5-14.4 12.7-7.4 38.5-22.6 57.5-33.8 19-11.1 36.4-21.3 38.8-22.7 4.1-2.3 4.3-2.6 4-6.4-.3-3.5-.8-4.3-4.3-6.2-2.2-1.2-6.8-3.8-10.3-5.9-3.5-2-6.6-3.7-6.8-3.7-.3 0-1.8-.8-3.2-1.9-1.5-1-4.7-2.9-7.2-4.3-4.1-2.3-14-8-77.5-44.8-12.1-7-24-13.8-26.5-15.2-2.5-1.4-18.7-10.8-36-20.8-17.3-10.1-33.5-19.4-36-20.8-2.5-1.4-7.8-4.4-11.7-6.8-4-2.4-7.5-4.4-7.8-4.4-.2 0-2.9-1.6-5.9-3.5-3-1.9-5.8-3.5-6.1-3.5-.3 0-4.1-2.2-8.5-5-4.4-2.7-8.3-4.9-8.5-4.9-.3-.1-1.5-.7-2.8-1.5-2.3-1.4-25.4-14.8-32.2-18.6-2.2-1.3-5.8-3.3-8-4.5-2.2-1.3-11.6-6.8-21-12.2-9.3-5.5-19-11.1-21.5-12.5-6-3.4-9.6-5.4-22-12.7-5.8-3.3-10.7-6.1-11-6.1-.3.1-2.7 1.3-5.5 2.8z"/><path d="M325.4 88.4c-1 .7-3.9 2.4-6.5 3.8-2.5 1.4-28.6 16.4-58 33.3-64.3 37-59.4 34.2-64.7 37.2-2.3 1.3-9.3 5.3-15.4 8.9-6.1 3.5-11.5 6.4-11.9 6.4-.5 0-.9.4-.9 1 0 .5-.5 1-1 1-.6 0-6.5 3.2-13.3 7.1-6.7 4-14.7 8.6-17.7 10.3-3.1 1.7-12.2 6.9-20.3 11.6l-14.7 8.4V483c0 258.4.1 265.6 1.9 266.7 1 .6 5.4 3.1 9.7 5.4 4.4 2.3 9.6 5.3 11.6 6.6 2.1 1.3 4 2.3 4.2 2.3.2 0 3.3 1.6 6.8 3.6 3.4 2 9.7 5.5 13.8 7.7 4.1 2.1 8 4.3 8.5 4.7.6.4 5.1 2.9 10 5.5 5 2.7 10.7 5.9 12.7 7.2 2.1 1.3 4 2.3 4.2 2.3.3 0 3.1 1.5 6.3 3.4 3.2 1.8 8.7 4.9 12.3 6.8 8.3 4.5 14.8 8.1 23 12.8 3.6 2 9.4 5.3 13 7.2 3.6 1.9 12.1 6.6 19 10.5 6.9 3.8 15.1 8.4 18.2 10.1 3.2 1.8 8.4 4.6 11.5 6.4 3.2 1.7 27.9 15.4 54.8 30.3 27 14.9 52.6 29.1 57 31.5 4.4 2.3 8.5 4.6 9 5 .6.4 3.9 2.3 7.5 4.2 5.6 3.1 24.4 13.4 39 21.6 2.5 1.3 8.4 4.7 13.3 7.3 4.8 2.7 9.3 4.9 10 4.9 1.2 0 5.1-2.2 26.2-14.5 12-7 77.8-45.1 83.6-48.4 5.3-3 32.7-18.8 34.9-20.1 6.2-3.8 21.8-12.8 23-13.3.8-.4 3.1-1.7 5-2.8 1.9-1.2 32.1-18.7 67.1-38.9 34.9-20.3 69.1-40.1 76-44 6.8-4 14.9-8.7 17.9-10.4 3.1-1.7 14.2-8.1 24.8-14.1l19.1-11 .1-131.1V477.2l-2.7-1c-6.3-2.4-6.7-2.3-18.9 4.6-6.5 3.8-16.6 9.5-22.4 12.8-5.8 3.2-11.3 6.3-12.2 6.9-.9.5-2.9 1.7-4.5 2.6-1.5.8-7.9 4.3-14 7.8l-11.3 6.3v87.6l-.1 87.7-32.1 18.5c-17.6 10.2-32.4 18.6-32.9 18.8-.5.2-.9-52.9-.9-123.5V482.5l35.3-21.2c19.3-11.7 44.4-26.9 55.7-33.8 11.3-6.9 21.4-13 22.5-13.5 1.1-.5 4.5-2.5 7.5-4.4 3-1.9 10.5-6.4 16.6-10 6.2-3.7 11.6-7.2 12.1-7.9.9-1.2 1.2-86.2.3-86.9-.3-.3-2.8-1.4-5.6-2.5l-5.1-2.1-16.9 9.7c-9.3 5.4-26.1 15.1-37.4 21.6-11.3 6.5-22.1 12.7-24 13.8-1.9 1.1-10.9 6.2-20 11.5-15.6 9-74 42.5-80.5 46.2-7.2 4.1-30.7 17.7-38.3 22.1-4.5 2.7-8.5 4.9-8.8 4.9-.3 0-1.8.8-3.2 1.9-1.5 1-4.7 2.9-7.2 4.3-5 2.8-42.3 24.2-68.5 39.3-9.3 5.4-18.8 10.8-21 12.1-2.2 1.2-8 4.6-13 7.4-4.9 2.9-13.7 7.9-19.4 11.2l-10.3 5.9-11.7-6.9c-6.4-3.9-20.1-12.1-30.6-18.4l-19-11.3-5.2.8-5.3.9V566.5l6.3 3.5c34.3 19.3 60.2 34.3 60.8 35.2.3.5.9.9 1.3.9.3-.1 2 .6 3.7 1.4 2.8 1.5 3.3 1.5 5.7-.2 2.8-1.8 43.7-25.4 53.2-30.6 3-1.6 6-3.3 6.5-3.7.6-.4 2.8-1.8 5-3s17.7-10.1 34.4-19.7 31-17.7 31.8-18c1.1-.4 1.3 20.8 1.3 124.5v125.1l-2.9 2c-1.6 1.2-3.2 2.1-3.5 2.1-.2 0-3.1 1.5-6.3 3.4-6.7 3.9-53.8 30.8-59.8 34.1-2.2 1.2-10.5 5.9-18.5 10.5-15.4 8.8-18.8 10.7-24.7 14.1-2.1 1.2-7.3 4.1-11.5 6.6l-7.7 4.4-36.3-20.7c-20-11.4-61.9-35.3-93.3-53.2-31.3-17.8-61.5-35-67-38.2-5.5-3.1-12-6.9-14.5-8.2-7.3-4.1-10-5.7-43-24.6-17.3-9.9-33.5-19.1-36-20.5l-4.5-2.5-.3-213.1-.2-213 14.2-8.4c7.9-4.6 30.5-17.7 50.3-29.2 33.1-19.2 53.7-31.2 57.5-33.5.8-.5 5.4-3.1 10.1-5.8 4.7-2.7 9.4-5.5 10.5-6.2 1.9-1.1 4.3.2 91.9 51 18.6 10.8 28.6 16.6 31.5 18.2 1.9 1.1 9.2 5.3 16.2 9.4l12.7 7.4 16-9.3c8.9-5 16.9-9.7 17.8-10.2 1-.6 10.7-6.1 21.6-12.4l19.7-11.4v-3.6c0-3.9-.7-4.4-21-15.8-1.9-1.1-10.5-6-19-11-8.5-4.9-27.9-16-43-24.8-15.1-8.7-34-19.6-42-24.3-8-4.7-17-9.8-20-11.4-3-1.7-5.9-3.4-6.5-3.8-.5-.4-3-1.9-5.5-3.2-2.5-1.4-10.1-5.8-17-9.8-6.8-4-14-8.2-16-9.3-4.4-2.4-28.4-16.3-32.6-18.8-2.6-1.6-3.3-1.6-5-.5z"/></svg>